<?xml version="1.0" encoding="UTF-8"?>
<svg version="1.1" xmlns="http://www.w3.org/2000/svg" width="40" height="40">
<path d="M0 0 C3.3 0 6.6 0 10 0 C10 8.91 10 17.82 10 27 C6.7 27 3.4 27 0 27 C0 18.09 0 9.18 0 0 Z " fill="#EE964C" transform="translate(30,13)"/>
<path d="M0 0 C3.3 0 6.6 0 10 0 C10 6.93 10 13.86 10 21 C6.7 21 3.4 21 0 21 C0 14.07 0 7.14 0 0 Z " fill="#C33F59" transform="translate(15,19)"/>
<path d="M0 0 C3.3 0 6.6 0 10 0 C10 4.95 10 9.9 10 15 C6.7 15 3.4 15 0 15 C0 10.05 0 5.1 0 0 Z " fill="#40A791" transform="translate(0,25)"/>
<path d="M0 0 C1.65 0.33 3.3 0.66 5 1 C5.144375 1.639375 5.28875 2.27875 5.4375 2.9375 C5.81007181 4.97545146 5.81007181 4.97545146 7 6 C7 7.65 7 9.3 7 11 C3.7 11 0.4 11 -3 11 C-3 6 -3 6 -1 4 C-0.3574765 1.93125966 -0.3574765 1.93125966 0 0 Z " fill="#3A4372" transform="translate(18,6)"/>
<path d="M0 0 C1.65 0 3.3 0 5 0 C6.42258812 3.82320557 7.24042276 6.91281305 7 11 C4.03 11 1.06 11 -2 11 C-3 7 -3 7 -2 5 C-1.34 5 -0.68 5 0 5 C0 3.35 0 1.7 0 0 Z " fill="#3D4474" transform="translate(33,0)"/>
<path d="M0 0 C1.32 0 2.64 0 4 0 C5.27253436 3.64793184 6.32829194 7.1936543 7 11 C3.7 11 0.4 11 -3 11 C-3 6.01112101 -2.34552782 4.20240402 0 0 Z " fill="#3B4371" transform="translate(3,12)"/>
<path d="M0 0 C1.65 0.33 3.3 0.66 5 1 C4.67 2.32 4.34 3.64 4 5 C2.35 4.67 0.7 4.34 -1 4 C-0.67 2.68 -0.34 1.36 0 0 Z " fill="#C05C7E" transform="translate(18,6)"/>
<path d="M0 0 C1.32 0 2.64 0 4 0 C3.67 1.65 3.34 3.3 3 5 C1.68 4.67 0.36 4.34 -1 4 C-0.67 2.68 -0.34 1.36 0 0 Z " fill="#DB698F" transform="translate(3,12)"/>
<path d="M0 0 C1.65 0 3.3 0 5 0 C4.67 1.65 4.34 3.3 4 5 C2.68 4.67 1.36 4.34 0 4 C0 2.68 0 1.36 0 0 Z " fill="#D2688F" transform="translate(33,0)"/>
</svg>
